<svg height="32" width="32" xmlns="http://www.w3.org/2000/svg"><path d="M26.5 30h-8a.5.5 0 0 1-.5-.5v-8a.5.5 0 0 1 .5-.5h8a.5.5 0 0 1 .5.5v8a.5.5 0 0 1-.5.5zM19 29h7v-7h-7v7zM10.5 30h-8a.5.5 0 0 1-.5-.5v-8a.5.5 0 0 1 .5-.5h8a.5.5 0 0 1 .5.5v8a.5.5 0 0 1-.5.5zM3 29h7v-7H3v7zM26.5 14h-8a.5.5 0 0 1-.5-.5v-8c0-.133.053-.26.146-.354l3-3A.504.504 0 0 1 21.5 2h8a.5.5 0 0 1 .5.5v8c0 .133-.053.26-.146.354l-3 3A.504.504 0 0 1 26.5 14zM19 13h7.293L29 10.293V3h-7.293L19 5.707V13z" fill="#263238"/><path d="M26.5 14h-8a.5.5 0 0 1-.5-.5v-8a.5.5 0 0 1 .5-.5h8a.5.5 0 0 1 .5.5v8a.5.5 0 0 1-.5.5zM19 13h7V6h-7v7zM10.5 14h-8a.5.5 0 0 1-.5-.5v-8a.5.5 0 0 1 .5-.5h8a.5.5 0 0 1 .5.5v8a.5.5 0 0 1-.5.5zM3 13h7V6H3v7zM26.5 22a.5.5 0 0 1-.354-.853l2.5-2.5a.5.5 0 0 1 .707.707l-2.5 2.5A.498.498 0 0 1 26.5 22zM10.5 22a.5.5 0 0 1-.354-.853l2.5-2.5a.5.5 0 0 1 .707.707l-2.5 2.5A.498.498 0 0 1 10.5 22z" fill="#263238"/><path d="M26.5 6a.5.5 0 0 1-.354-.853l2.5-2.5a.5.5 0 0 1 .707.707l-2.5 2.5A.498.498 0 0 1 26.5 6zM10.5 6a.5.5 0 0 1-.354-.853l2.5-2.5a.5.5 0 0 1 .707.707l-2.5 2.5A.498.498 0 0 1 10.5 6zM18 25h-5.5a.5.5 0 0 1 0-1H18a.5.5 0 0 1 0 1zM18 9h-5.5a.5.5 0 0 1 0-1H18a.5.5 0 0 1 0 1z" fill="#263238"/><path d="M18.5 30a.5.5 0 0 1-.5-.5v-8c0-.133.053-.26.146-.354l3-3a.5.5 0 0 1 .707.707L19 21.707V29h7.293L29 26.293V19h-3.5a.5.5 0 0 1 0-1h4a.5.5 0 0 1 .5.5v8c0 .133-.053.26-.146.354l-3 3A.504.504 0 0 1 26.5 30h-8z" fill="#263238"/><path d="M23.5 20a.5.5 0 0 1-.5-.5V14a.5.5 0 0 1 1 0v5.5a.5.5 0 0 1-.5.5zM7.5 20a.5.5 0 0 1-.5-.5V14a.5.5 0 0 1 1 0v5.5a.5.5 0 0 1-.5.5z" fill="#263238"/><path d="M2.5 14a.5.5 0 0 1-.5-.5v-8c0-.133.053-.26.146-.354l3-3A.504.504 0 0 1 5.5 2h8a.5.5 0 0 1 .5.5v4a.5.5 0 0 1-1 0V3H5.707L3 5.707V13h7.293l2.854-2.854a.5.5 0 0 1 .707.707l-3 3A.5.5 0 0 1 10.5 14h-8zM10.5 30h-8a.5.5 0 0 1-.5-.5v-8c0-.133.053-.26.146-.354l3-3a.5.5 0 0 1 .707.707L3 21.707V29h7.293l2.854-2.854a.5.5 0 0 1 .707.707l-3 3A.5.5 0 0 1 10.5 30zM13 22.5V19H9.5a.5.5 0 0 1 0-1h4a.5.5 0 0 1 .5.5v4a.5.5 0 0 1-1 0z" fill="#263238"/></svg>